<svg width="10.000000" height="7.000000" viewBox="0 0 10 7" fill="none" xmlns="http://www.w3.org/2000/svg" xmlns:xlink="http://www.w3.org/1999/xlink">
	<desc>
			Created with Pixso.
	</desc>
	<defs/>
	<path id="Right Arrow" d="M9.76 0.79L9.28 0.26C9.11 0.08 8.91 0 8.69 0C8.47 0 8.27 0.08 8.11 0.26L5 3.72L1.88 0.26C1.72 0.08 1.52 8.77e-5 1.3 8.77e-5C1.08 8.77e-5 0.88 0.08 0.71 0.26L0.24 0.79C0.08 0.97 0 1.19 0 1.44C0 1.7 0.08 1.91 0.24 2.08L4.42 6.72C4.57 6.9 4.76 7 5 7C5.22 7 5.42 6.9 5.58 6.72L9.76 2.08C9.92 1.91 10 1.69 10 1.44C10 1.19 9.92 0.98 9.76 0.79Z" fill="#000000" fill-opacity="1.000000" fill-rule="evenodd"/>
</svg>
