<svg width="16.000000" height="20.526794" viewBox="0 0 16 20.5268" fill="none" xmlns="http://www.w3.org/2000/svg" xmlns:xlink="http://www.w3.org/1999/xlink">
	<desc>
			Created with Pixso.
	</desc>
	<defs/>
	<g opacity="0.240000" style="mix-blend-mode:normal">
		<path id="Path-957-Copy" d="M16 12.321C16 10.1176 15.1323 8.5108 13.6147 7.20044C13.1743 6.81982 11.9868 5.97382 11.8926 5.88708C10.5122 4.62244 9.98389 3.44849 10.4966 1.26648C10.6943 0.4245 9.84619 -0.273376 9.08643 0.105957C5.80371 1.74432 4.47266 5.19293 4.729 8.25934C4.34424 7.69189 4.08057 6.95166 3.99414 6.08209C3.89844 5.11432 2.66357 4.81519 2.15479 5.6366C0.547363 8.23242 0 9.79413 0 12.321C0 16.9093 3.60596 20.5268 8.01172 20.5268C12.4131 20.5268 16 16.9117 16 12.321ZM2.71631 8.78204C2.42236 9.49414 2 10.2348 2 12.321C2 15.7681 4.70117 18.478 8.01172 18.478C11.3159 18.478 14 15.7728 14 12.321C14 10.7811 13.4248 9.71576 12.3257 8.76678C11.9883 8.47534 10.7686 7.6062 10.5591 7.41418C9.23389 6.20001 8.42383 4.9071 8.31396 3.18304C7.64355 3.85211 6.104 5.93207 6.97217 10.0484C7.10645 10.6865 6.63184 11.289 5.99463 11.289C4.72998 11.289 3.47998 10.2984 2.71631 8.78204Z" clip-rule="evenodd" fill="#000000" fill-opacity="1.000000" fill-rule="evenodd"/>
	</g>
</svg>
