<svg width="20.000000" height="16.000000" viewBox="0 0 20 16" fill="none" xmlns="http://www.w3.org/2000/svg" xmlns:xlink="http://www.w3.org/1999/xlink">
	<desc>
			Created with Pixso.
	</desc>
	<defs/>
	<g opacity="0.240000" style="mix-blend-mode:normal">
		<path id="Combined-Shape" d="M1.81396 0C0.817871 0 0 0.794006 0 1.77344L0 14.2266C0 15.2065 0.814453 16 1.81885 16L18.1812 16C19.1851 16 20 15.2042 20 14.2225L20 4.44409C20 3.46082 19.1841 2.66669 18.1782 2.66669L10.0034 2.66669L8.71582 0.742798C8.44092 0.332336 7.81055 0 7.30762 0L1.81396 0ZM1.81836 14.2266L18.1812 14.2222L18.1816 4.44409L10.0034 4.44446C9.39014 4.44446 8.81787 4.14203 8.48193 3.6402L7.27295 1.7821L1.81396 1.77777L1.81836 14.2266Z" clip-rule="evenodd" fill="#000000" fill-opacity="1.000000" fill-rule="evenodd"/>
	</g>
</svg>
