<svg width="17.811523" height="18.000000" viewBox="0 0 17.8115 18" fill="none" xmlns="http://www.w3.org/2000/svg" xmlns:xlink="http://www.w3.org/1999/xlink">
	<desc>
			Created with Pixso.
	</desc>
	<defs/>
	<g opacity="0.240000" style="mix-blend-mode:normal">
		<path id="Combined-Shape" d="M3.90576 1C3.90576 0.447693 4.35449 0 4.90088 0L12.9102 0C13.46 0 13.9058 0.443848 13.9058 1C13.9058 1.55231 13.4565 2 12.9102 2L4.90088 2C4.35107 2 3.90576 1.55615 3.90576 1ZM2.90137 3C2.35547 3 1.90576 3.44769 1.90576 4C1.90576 4.55615 2.35156 5 2.90137 5L14.9102 5C15.4556 5 15.9058 4.55231 15.9058 4C15.9058 3.44385 15.46 3 14.9102 3L2.90137 3ZM0.811035 16.1041L0.0102539 8.09491C-0.104004 6.95575 0.759277 6 1.90625 6L15.9048 6C17.0493 6 17.915 6.9538 17.8013 8.09491L17 16.1041C16.894 17.1633 15.9712 18 14.9102 18L2.90137 18C1.83594 18 0.91748 17.1666 0.811035 16.1041ZM2.01123 8.00421L15.7998 8.00793L14.9058 16L2.90576 16L2.01123 8.00421Z" clip-rule="evenodd" fill="#000000" fill-opacity="1.000000" fill-rule="evenodd"/>
	</g>
</svg>
